<?xml version="1.0" standalone="no"?><!DOCTYPE svg PUBLIC "-//W3C//DTD SVG 1.1//EN" "http://www.w3.org/Graphics/SVG/1.1/DTD/svg11.dtd"><svg t="1697531205228" class="icon" viewBox="0 0 1024 1024" version="1.1" xmlns="http://www.w3.org/2000/svg" p-id="1853" width="64" height="64" xmlns:xlink="http://www.w3.org/1999/xlink"><path d="M514.133 63.698c-244.647 0-442.969 198.312-442.969 442.969s198.322 442.969 442.969 442.969c244.657 0 442.969-198.312 442.969-442.969S758.79 63.698 514.133 63.698z m206.729 541.387c-15.799 23.705-49.652 39.652-108.282 78.75-58.61 39.08-88.585 98.428-88.585 98.428-89.204-116.265-124.888-104.58-198.401-151.466-70.924-45.232-86.32-100.711-87.049-144.24-0.659-39.513 9.844-68.493 9.844-68.493s1.624 49.327 55.371 63.985c53.747 14.648 85.957 34.543 85.957 34.543-4.893-29.305 0.994-48.894 0.994-48.894 9.844 49.219 44.985 49.161 84.075 98.014 39.099 48.864 59.063 147.646 59.063 147.646 14.657-14.648 26.283-28.823 55.598-87.442 29.315-58.639 63.512-68.404 63.512-68.404-14.667 9.766-9.775 34.207-9.775 34.207 34.197-63.512 146.573-45.695 146.573-45.695-19.54 0-49.209 29.531-68.896 59.063z m33.931-90.879s-17.63-1.654-43.883 4.214a148.6 148.6 0 0 0-18.85 5.168 212.416 212.416 0 0 0-29.846 12.382c43.982-48.038 68.493-88.633 68.493-127.791 0-44.868-33.843-78.701-78.72-78.701-34.65 0-77.085 33.931-86.556 43.017l-43.726 41.944-40.812-44.779c-0.098-0.079-38.332-40.182-83.829-40.182-44.858 0-78.691 33.843-78.691 78.701 0 17.276 4.794 34.847 13.899 53.196 0 0-56.484-18.477-72.39-62.153 4.518-72.883 62.99-128.805 137.183-128.805 73.276 0 127.467 59.456 127.467 59.456s61.986-59.456 127.457-59.456c77.274 0 137.772 60.51 137.772 137.763 0 36.481-12.019 70.59-34.965 106.027z" p-id="1854"></path></svg>